<svg width="2976" height="2896" viewBox="0 0 2976 2896" fill="none" xmlns="http://www.w3.org/2000/svg">
<ellipse cx="1488" cy="1448" rx="1488" ry="1448" fill="url(#paint0_linear_7_4)"/>
<g filter="url(#filter0_i_7_4)">
<ellipse cx="1488" cy="1447.5" rx="1413" ry="1375.5" fill="url(#paint1_linear_7_4)"/>
</g>
<g filter="url(#filter1_d_7_4)">
<path d="M2139.41 605.458L2268.21 1280.06L1878.71 1537.19L1664.42 605.458H2139.41Z" fill="white"/>
<path d="M2139.41 605.458L2268.21 1280.06L1878.71 1537.19L1664.42 605.458H2139.41Z" fill="url(#paint2_radial_7_4)"/>
<path d="M2117.43 486.881L2139.64 606.568H1666.2L1878.93 1536.97L1488.33 1791L1487.88 1790.78V331.222L1488.33 331L2117.43 486.881Z" fill="url(#paint3_linear_7_4)"/>
<path d="M836.574 605.458L708 1280.06L1096.39 1537.19L1311.79 605.458H836.574Z" fill="white"/>
<path d="M836.574 605.458L708 1280.06L1096.39 1537.19L1311.79 605.458H836.574Z" fill="url(#paint4_radial_7_4)"/>
<path d="M858.78 486.881L836.574 606.568H1309.79L1095.94 1536.97L1487.88 1791L1488.33 1790.78V331.222L1487.88 331L858.78 486.881Z" fill="url(#paint5_linear_7_4)"/>
</g>
<g filter="url(#filter2_d_7_4)">
<path d="M1483.33 2002.55L1242.18 2556H1140.98L899.047 2002.55H1010.53L1194.75 2429.5L1380.55 2002.55H1483.33ZM1913.48 2272.95H2010.73V2493.54C1982.26 2516.2 1949.06 2533.6 1911.11 2545.72C1873.16 2557.84 1834.15 2563.91 1794.09 2563.91C1737.69 2563.91 1686.83 2551.78 1641.5 2527.54C1596.17 2502.76 1560.59 2468.77 1534.76 2425.54C1508.94 2382.32 1496.02 2333.57 1496.02 2279.28C1496.02 2224.99 1508.94 2176.23 1534.76 2133.01C1560.59 2089.79 1596.17 2056.05 1641.5 2031.81C1687.36 2007.03 1738.75 1994.65 1795.67 1994.65C1842.06 1994.65 1884.22 2002.29 1922.18 2017.58C1960.13 2032.86 1992.02 2055.26 2017.84 2084.78L1953.01 2148.03C1910.84 2105.86 1859.98 2084.78 1800.42 2084.78C1761.41 2084.78 1726.62 2092.95 1696.05 2109.29C1666.01 2125.63 1642.29 2148.56 1624.9 2178.08C1608.03 2207.59 1599.6 2241.33 1599.6 2279.28C1599.6 2316.17 1608.03 2349.38 1624.9 2378.9C1642.29 2408.41 1666.01 2431.61 1696.05 2448.47C1726.62 2465.34 1761.15 2473.77 1799.63 2473.77C1842.85 2473.77 1880.8 2464.29 1913.48 2445.31V2272.95Z" fill="white"/>
</g>
<defs>
<filter id="filter0_i_7_4" x="75" y="72" width="2826" height="2751" filterUnits="userSpaceOnUse" color-interpolation-filters="sRGB">
<feFlood flood-opacity="0" result="BackgroundImageFix"/>
<feBlend mode="normal" in="SourceGraphic" in2="BackgroundImageFix" result="shape"/>
<feColorMatrix in="SourceAlpha" type="matrix" values="0 0 0 0 0 0 0 0 0 0 0 0 0 0 0 0 0 0 127 0" result="hardAlpha"/>
<feMorphology radius="114" operator="erode" in="SourceAlpha" result="effect1_innerShadow_7_4"/>
<feOffset/>
<feGaussianBlur stdDeviation="125"/>
<feComposite in2="hardAlpha" operator="arithmetic" k2="-1" k3="1"/>
<feColorMatrix type="matrix" values="0 0 0 0 0 0 0 0 0 0 0 0 0 0 0 0 0 0 0.19 0"/>
<feBlend mode="normal" in2="shape" result="effect1_innerShadow_7_4"/>
</filter>
<filter id="filter1_d_7_4" x="645.509" y="295.72" width="1687.07" height="1586.86" filterUnits="userSpaceOnUse" color-interpolation-filters="sRGB">
<feFlood flood-opacity="0" result="BackgroundImageFix"/>
<feColorMatrix in="SourceAlpha" type="matrix" values="0 0 0 0 0 0 0 0 0 0 0 0 0 0 0 0 0 0 127 0" result="hardAlpha"/>
<feOffset dx="0.938303" dy="28.1491"/>
<feGaussianBlur stdDeviation="31.7147"/>
<feComposite in2="hardAlpha" operator="out"/>
<feColorMatrix type="matrix" values="0 0 0 0 0 0 0 0 0 0 0 0 0 0 0 0 0 0 0.32 0"/>
<feBlend mode="normal" in2="BackgroundImageFix" result="effect1_dropShadow_7_4"/>
<feBlend mode="normal" in="SourceGraphic" in2="effect1_dropShadow_7_4" result="shape"/>
</filter>
<filter id="filter2_d_7_4" x="841.847" y="1928.45" width="1285.2" height="735.659" filterUnits="userSpaceOnUse" color-interpolation-filters="sRGB">
<feFlood flood-opacity="0" result="BackgroundImageFix"/>
<feColorMatrix in="SourceAlpha" type="matrix" values="0 0 0 0 0 0 0 0 0 0 0 0 0 0 0 0 0 0 127 0" result="hardAlpha"/>
<feOffset dx="26" dy="17"/>
<feGaussianBlur stdDeviation="41.6"/>
<feComposite in2="hardAlpha" operator="out"/>
<feColorMatrix type="matrix" values="0 0 0 0 0 0 0 0 0 0 0 0 0 0 0 0 0 0 0.38 0"/>
<feBlend mode="normal" in2="BackgroundImageFix" result="effect1_dropShadow_7_4"/>
<feBlend mode="normal" in="SourceGraphic" in2="effect1_dropShadow_7_4" result="shape"/>
</filter>
<linearGradient id="paint0_linear_7_4" x1="1488" y1="0" x2="1488" y2="2896" gradientUnits="userSpaceOnUse">
<stop stop-color="#0D9297"/>
<stop offset="1" stop-color="#18CEEF"/>
</linearGradient>
<linearGradient id="paint1_linear_7_4" x1="1488" y1="72" x2="1488" y2="2823" gradientUnits="userSpaceOnUse">
<stop offset="0.0905303" stop-color="#12256A"/>
<stop offset="0.613071" stop-color="#47D4FA" stop-opacity="0.71"/>
</linearGradient>
<radialGradient id="paint2_radial_7_4" cx="0" cy="0" r="1" gradientUnits="userSpaceOnUse" gradientTransform="translate(1693.34 674.912) rotate(45.887) scale(827.258 827.259)">
<stop stop-color="#6CCAFD" stop-opacity="0.1"/>
<stop offset="0.3842" stop-color="#6CCAFD" stop-opacity="0.3163"/>
<stop offset="1" stop-color="#6CCAFD" stop-opacity="0.8"/>
</radialGradient>
<linearGradient id="paint3_linear_7_4" x1="2043.24" y1="1282.08" x2="1198.01" y2="778.769" gradientUnits="userSpaceOnUse">
<stop stop-color="#0073B2"/>
<stop offset="0.5721" stop-color="#5CC5FE"/>
<stop offset="1" stop-color="#6FCBFD"/>
</linearGradient>
<radialGradient id="paint4_radial_7_4" cx="0" cy="0" r="1" gradientUnits="userSpaceOnUse" gradientTransform="translate(1286.43 675.524) rotate(134.277) scale(830.141 830.275)">
<stop stop-color="#D3FF80" stop-opacity="0.1"/>
<stop offset="0.3842" stop-color="#D3FF80" stop-opacity="0.3163"/>
<stop offset="1" stop-color="#D3FF80" stop-opacity="0.8"/>
</radialGradient>
<linearGradient id="paint5_linear_7_4" x1="932.64" y1="1282.03" x2="1778.02" y2="779.497" gradientUnits="userSpaceOnUse">
<stop stop-color="#72AC00"/>
<stop offset="0.5721" stop-color="#ABF718"/>
<stop offset="1" stop-color="#D7FF88"/>
</linearGradient>
</defs>
</svg>
